# xmcd
#
# Track frame offsets: 
#        150
#        15507
#        31530
#        50429
#        73121
#        87202
#        103878
#        115473
#        132701
#        149895
#
# Disc length: 2271 seconds
#
# Revision: 0
# Processed by: cddbd v1.5.2PL0 Copyright (c) Steve Scherf et al.
# Submitted via: ExactAudioCopy v1.3
#
DISCID=9208dd0a
DTITLE=McNaMarr Project - Holla and Moan
DYEAR=2019
DGENRE=Blues
TTITLE0=Holla and Moan
TTITLE1=Missing You
TTITLE2=Throwing Down A Little Love
TTITLE3=History
TTITLE4=Cry With Me
TTITLE5=Keep It Rollin'
TTITLE6=Can You Take The Heat
TTITLE7=No More Chains
TTITLE8=Something That's Real
TTITLE9=Blues Brought Me Here
EXTD=
EXTT0=
EXTT1=
EXTT2=
EXTT3=
EXTT4=
EXTT5=
EXTT6=
EXTT7=
EXTT8=
EXTT9=
PLAYORDER=
